G75*
%MOIN*%
%OFA0B0*%
%FSLAX25Y25*%
%IPPOS*%
%LPD*%
%AMOC8*
5,1,8,0,0,1.08239X$1,22.5*
%
%ADD10C,0.00000*%
%ADD11C,0.00600*%
%ADD12C,0.00500*%
%ADD13C,0.01600*%
%ADD14C,0.00100*%
%ADD15C,0.00800*%
%ADD16C,0.00591*%
D10*
X0001000Y0001000D02*
X0001000Y0394701D01*
X0630921Y0394701D01*
X0630921Y0001000D01*
X0001000Y0001000D01*
X0307000Y0111000D02*
X0307002Y0111126D01*
X0307008Y0111252D01*
X0307018Y0111378D01*
X0307032Y0111504D01*
X0307050Y0111629D01*
X0307072Y0111753D01*
X0307097Y0111877D01*
X0307127Y0112000D01*
X0307160Y0112121D01*
X0307198Y0112242D01*
X0307239Y0112361D01*
X0307284Y0112480D01*
X0307332Y0112596D01*
X0307384Y0112711D01*
X0307440Y0112824D01*
X0307500Y0112936D01*
X0307563Y0113045D01*
X0307629Y0113153D01*
X0307698Y0113258D01*
X0307771Y0113361D01*
X0307848Y0113462D01*
X0307927Y0113560D01*
X0308009Y0113656D01*
X0308095Y0113749D01*
X0308183Y0113840D01*
X0308274Y0113927D01*
X0308368Y0114012D01*
X0308464Y0114093D01*
X0308563Y0114172D01*
X0308664Y0114247D01*
X0308768Y0114319D01*
X0308874Y0114388D01*
X0308982Y0114454D01*
X0309092Y0114516D01*
X0309204Y0114574D01*
X0309317Y0114629D01*
X0309433Y0114680D01*
X0309550Y0114728D01*
X0309668Y0114772D01*
X0309788Y0114812D01*
X0309909Y0114848D01*
X0310031Y0114881D01*
X0310154Y0114910D01*
X0310278Y0114934D01*
X0310402Y0114955D01*
X0310527Y0114972D01*
X0310653Y0114985D01*
X0310779Y0114994D01*
X0310905Y0114999D01*
X0311032Y0115000D01*
X0311158Y0114997D01*
X0311284Y0114990D01*
X0311410Y0114979D01*
X0311535Y0114964D01*
X0311660Y0114945D01*
X0311784Y0114922D01*
X0311908Y0114896D01*
X0312030Y0114865D01*
X0312152Y0114831D01*
X0312272Y0114792D01*
X0312391Y0114750D01*
X0312509Y0114705D01*
X0312625Y0114655D01*
X0312740Y0114602D01*
X0312852Y0114545D01*
X0312963Y0114485D01*
X0313072Y0114421D01*
X0313179Y0114354D01*
X0313284Y0114284D01*
X0313387Y0114210D01*
X0313487Y0114133D01*
X0313585Y0114053D01*
X0313680Y0113970D01*
X0313772Y0113884D01*
X0313862Y0113795D01*
X0313949Y0113703D01*
X0314032Y0113609D01*
X0314113Y0113512D01*
X0314191Y0113412D01*
X0314266Y0113310D01*
X0314337Y0113206D01*
X0314405Y0113099D01*
X0314469Y0112991D01*
X0314530Y0112880D01*
X0314588Y0112768D01*
X0314642Y0112654D01*
X0314692Y0112538D01*
X0314739Y0112421D01*
X0314782Y0112302D01*
X0314821Y0112182D01*
X0314857Y0112061D01*
X0314888Y0111938D01*
X0314916Y0111815D01*
X0314940Y0111691D01*
X0314960Y0111566D01*
X0314976Y0111441D01*
X0314988Y0111315D01*
X0314996Y0111189D01*
X0315000Y0111063D01*
X0315000Y0110937D01*
X0314996Y0110811D01*
X0314988Y0110685D01*
X0314976Y0110559D01*
X0314960Y0110434D01*
X0314940Y0110309D01*
X0314916Y0110185D01*
X0314888Y0110062D01*
X0314857Y0109939D01*
X0314821Y0109818D01*
X0314782Y0109698D01*
X0314739Y0109579D01*
X0314692Y0109462D01*
X0314642Y0109346D01*
X0314588Y0109232D01*
X0314530Y0109120D01*
X0314469Y0109009D01*
X0314405Y0108901D01*
X0314337Y0108794D01*
X0314266Y0108690D01*
X0314191Y0108588D01*
X0314113Y0108488D01*
X0314032Y0108391D01*
X0313949Y0108297D01*
X0313862Y0108205D01*
X0313772Y0108116D01*
X0313680Y0108030D01*
X0313585Y0107947D01*
X0313487Y0107867D01*
X0313387Y0107790D01*
X0313284Y0107716D01*
X0313179Y0107646D01*
X0313072Y0107579D01*
X0312963Y0107515D01*
X0312852Y0107455D01*
X0312740Y0107398D01*
X0312625Y0107345D01*
X0312509Y0107295D01*
X0312391Y0107250D01*
X0312272Y0107208D01*
X0312152Y0107169D01*
X0312030Y0107135D01*
X0311908Y0107104D01*
X0311784Y0107078D01*
X0311660Y0107055D01*
X0311535Y0107036D01*
X0311410Y0107021D01*
X0311284Y0107010D01*
X0311158Y0107003D01*
X0311032Y0107000D01*
X0310905Y0107001D01*
X0310779Y0107006D01*
X0310653Y0107015D01*
X0310527Y0107028D01*
X0310402Y0107045D01*
X0310278Y0107066D01*
X0310154Y0107090D01*
X0310031Y0107119D01*
X0309909Y0107152D01*
X0309788Y0107188D01*
X0309668Y0107228D01*
X0309550Y0107272D01*
X0309433Y0107320D01*
X0309317Y0107371D01*
X0309204Y0107426D01*
X0309092Y0107484D01*
X0308982Y0107546D01*
X0308874Y0107612D01*
X0308768Y0107681D01*
X0308664Y0107753D01*
X0308563Y0107828D01*
X0308464Y0107907D01*
X0308368Y0107988D01*
X0308274Y0108073D01*
X0308183Y0108160D01*
X0308095Y0108251D01*
X0308009Y0108344D01*
X0307927Y0108440D01*
X0307848Y0108538D01*
X0307771Y0108639D01*
X0307698Y0108742D01*
X0307629Y0108847D01*
X0307563Y0108955D01*
X0307500Y0109064D01*
X0307440Y0109176D01*
X0307384Y0109289D01*
X0307332Y0109404D01*
X0307284Y0109520D01*
X0307239Y0109639D01*
X0307198Y0109758D01*
X0307160Y0109879D01*
X0307127Y0110000D01*
X0307097Y0110123D01*
X0307072Y0110247D01*
X0307050Y0110371D01*
X0307032Y0110496D01*
X0307018Y0110622D01*
X0307008Y0110748D01*
X0307002Y0110874D01*
X0307000Y0111000D01*
X0307000Y0129000D02*
X0307002Y0129126D01*
X0307008Y0129252D01*
X0307018Y0129378D01*
X0307032Y0129504D01*
X0307050Y0129629D01*
X0307072Y0129753D01*
X0307097Y0129877D01*
X0307127Y0130000D01*
X0307160Y0130121D01*
X0307198Y0130242D01*
X0307239Y0130361D01*
X0307284Y0130480D01*
X0307332Y0130596D01*
X0307384Y0130711D01*
X0307440Y0130824D01*
X0307500Y0130936D01*
X0307563Y0131045D01*
X0307629Y0131153D01*
X0307698Y0131258D01*
X0307771Y0131361D01*
X0307848Y0131462D01*
X0307927Y0131560D01*
X0308009Y0131656D01*
X0308095Y0131749D01*
X0308183Y0131840D01*
X0308274Y0131927D01*
X0308368Y0132012D01*
X0308464Y0132093D01*
X0308563Y0132172D01*
X0308664Y0132247D01*
X0308768Y0132319D01*
X0308874Y0132388D01*
X0308982Y0132454D01*
X0309092Y0132516D01*
X0309204Y0132574D01*
X0309317Y0132629D01*
X0309433Y0132680D01*
X0309550Y0132728D01*
X0309668Y0132772D01*
X0309788Y0132812D01*
X0309909Y0132848D01*
X0310031Y0132881D01*
X0310154Y0132910D01*
X0310278Y0132934D01*
X0310402Y0132955D01*
X0310527Y0132972D01*
X0310653Y0132985D01*
X0310779Y0132994D01*
X0310905Y0132999D01*
X0311032Y0133000D01*
X0311158Y0132997D01*
X0311284Y0132990D01*
X0311410Y0132979D01*
X0311535Y0132964D01*
X0311660Y0132945D01*
X0311784Y0132922D01*
X0311908Y0132896D01*
X0312030Y0132865D01*
X0312152Y0132831D01*
X0312272Y0132792D01*
X0312391Y0132750D01*
X0312509Y0132705D01*
X0312625Y0132655D01*
X0312740Y0132602D01*
X0312852Y0132545D01*
X0312963Y0132485D01*
X0313072Y0132421D01*
X0313179Y0132354D01*
X0313284Y0132284D01*
X0313387Y0132210D01*
X0313487Y0132133D01*
X0313585Y0132053D01*
X0313680Y0131970D01*
X0313772Y0131884D01*
X0313862Y0131795D01*
X0313949Y0131703D01*
X0314032Y0131609D01*
X0314113Y0131512D01*
X0314191Y0131412D01*
X0314266Y0131310D01*
X0314337Y0131206D01*
X0314405Y0131099D01*
X0314469Y0130991D01*
X0314530Y0130880D01*
X0314588Y0130768D01*
X0314642Y0130654D01*
X0314692Y0130538D01*
X0314739Y0130421D01*
X0314782Y0130302D01*
X0314821Y0130182D01*
X0314857Y0130061D01*
X0314888Y0129938D01*
X0314916Y0129815D01*
X0314940Y0129691D01*
X0314960Y0129566D01*
X0314976Y0129441D01*
X0314988Y0129315D01*
X0314996Y0129189D01*
X0315000Y0129063D01*
X0315000Y0128937D01*
X0314996Y0128811D01*
X0314988Y0128685D01*
X0314976Y0128559D01*
X0314960Y0128434D01*
X0314940Y0128309D01*
X0314916Y0128185D01*
X0314888Y0128062D01*
X0314857Y0127939D01*
X0314821Y0127818D01*
X0314782Y0127698D01*
X0314739Y0127579D01*
X0314692Y0127462D01*
X0314642Y0127346D01*
X0314588Y0127232D01*
X0314530Y0127120D01*
X0314469Y0127009D01*
X0314405Y0126901D01*
X0314337Y0126794D01*
X0314266Y0126690D01*
X0314191Y0126588D01*
X0314113Y0126488D01*
X0314032Y0126391D01*
X0313949Y0126297D01*
X0313862Y0126205D01*
X0313772Y0126116D01*
X0313680Y0126030D01*
X0313585Y0125947D01*
X0313487Y0125867D01*
X0313387Y0125790D01*
X0313284Y0125716D01*
X0313179Y0125646D01*
X0313072Y0125579D01*
X0312963Y0125515D01*
X0312852Y0125455D01*
X0312740Y0125398D01*
X0312625Y0125345D01*
X0312509Y0125295D01*
X0312391Y0125250D01*
X0312272Y0125208D01*
X0312152Y0125169D01*
X0312030Y0125135D01*
X0311908Y0125104D01*
X0311784Y0125078D01*
X0311660Y0125055D01*
X0311535Y0125036D01*
X0311410Y0125021D01*
X0311284Y0125010D01*
X0311158Y0125003D01*
X0311032Y0125000D01*
X0310905Y0125001D01*
X0310779Y0125006D01*
X0310653Y0125015D01*
X0310527Y0125028D01*
X0310402Y0125045D01*
X0310278Y0125066D01*
X0310154Y0125090D01*
X0310031Y0125119D01*
X0309909Y0125152D01*
X0309788Y0125188D01*
X0309668Y0125228D01*
X0309550Y0125272D01*
X0309433Y0125320D01*
X0309317Y0125371D01*
X0309204Y0125426D01*
X0309092Y0125484D01*
X0308982Y0125546D01*
X0308874Y0125612D01*
X0308768Y0125681D01*
X0308664Y0125753D01*
X0308563Y0125828D01*
X0308464Y0125907D01*
X0308368Y0125988D01*
X0308274Y0126073D01*
X0308183Y0126160D01*
X0308095Y0126251D01*
X0308009Y0126344D01*
X0307927Y0126440D01*
X0307848Y0126538D01*
X0307771Y0126639D01*
X0307698Y0126742D01*
X0307629Y0126847D01*
X0307563Y0126955D01*
X0307500Y0127064D01*
X0307440Y0127176D01*
X0307384Y0127289D01*
X0307332Y0127404D01*
X0307284Y0127520D01*
X0307239Y0127639D01*
X0307198Y0127758D01*
X0307160Y0127879D01*
X0307127Y0128000D01*
X0307097Y0128123D01*
X0307072Y0128247D01*
X0307050Y0128371D01*
X0307032Y0128496D01*
X0307018Y0128622D01*
X0307008Y0128748D01*
X0307002Y0128874D01*
X0307000Y0129000D01*
D11*
X0376000Y0086000D02*
X0386000Y0096000D01*
X0386000Y0341000D01*
X0216000Y0341000D01*
X0216000Y0091000D01*
X0221000Y0086000D01*
X0376000Y0086000D01*
D12*
X0362250Y0091750D02*
X0362250Y0091961D01*
X0362248Y0092000D01*
X0362243Y0092039D01*
X0362234Y0092076D01*
X0362222Y0092113D01*
X0362206Y0092149D01*
X0362187Y0092183D01*
X0362165Y0092215D01*
X0362140Y0092245D01*
X0362112Y0092273D01*
X0362082Y0092298D01*
X0362050Y0092320D01*
X0362016Y0092339D01*
X0361980Y0092355D01*
X0361943Y0092367D01*
X0361906Y0092376D01*
X0361867Y0092381D01*
X0361828Y0092383D01*
X0360350Y0092383D01*
X0360350Y0093966D02*
X0361828Y0093544D01*
X0361828Y0094599D01*
X0361406Y0094283D02*
X0362250Y0094283D01*
X0299750Y0127550D02*
X0299750Y0127761D01*
X0299748Y0127800D01*
X0299743Y0127839D01*
X0299734Y0127876D01*
X0299722Y0127913D01*
X0299706Y0127949D01*
X0299687Y0127983D01*
X0299665Y0128015D01*
X0299640Y0128045D01*
X0299612Y0128073D01*
X0299582Y0128098D01*
X0299550Y0128120D01*
X0299516Y0128139D01*
X0299480Y0128155D01*
X0299443Y0128167D01*
X0299406Y0128176D01*
X0299367Y0128181D01*
X0299328Y0128183D01*
X0297850Y0128183D01*
X0298694Y0130241D02*
X0298665Y0130269D01*
X0298633Y0130296D01*
X0298599Y0130319D01*
X0298563Y0130340D01*
X0298526Y0130358D01*
X0298487Y0130372D01*
X0298448Y0130384D01*
X0298407Y0130392D01*
X0298366Y0130397D01*
X0298325Y0130399D01*
X0298694Y0130241D02*
X0299750Y0129344D01*
X0299750Y0130399D01*
X0298272Y0129344D02*
X0298227Y0129360D01*
X0298184Y0129380D01*
X0298142Y0129404D01*
X0298102Y0129430D01*
X0298064Y0129460D01*
X0298029Y0129492D01*
X0297996Y0129528D01*
X0297967Y0129565D01*
X0297940Y0129605D01*
X0297917Y0129647D01*
X0297896Y0129690D01*
X0297880Y0129735D01*
X0297867Y0129782D01*
X0297858Y0129829D01*
X0297852Y0129876D01*
X0297850Y0129924D01*
X0297852Y0129965D01*
X0297857Y0130007D01*
X0297866Y0130047D01*
X0297879Y0130086D01*
X0297895Y0130125D01*
X0297914Y0130162D01*
X0297936Y0130196D01*
X0297961Y0130229D01*
X0297989Y0130260D01*
X0298020Y0130288D01*
X0298053Y0130313D01*
X0298088Y0130335D01*
X0298124Y0130354D01*
X0298163Y0130370D01*
X0298202Y0130383D01*
X0298243Y0130392D01*
X0298284Y0130397D01*
X0298325Y0130399D01*
X0270250Y0116906D02*
X0270250Y0116378D01*
X0270250Y0116906D02*
X0270248Y0116951D01*
X0270242Y0116995D01*
X0270233Y0117039D01*
X0270220Y0117082D01*
X0270203Y0117123D01*
X0270183Y0117164D01*
X0270159Y0117202D01*
X0270133Y0117238D01*
X0270103Y0117271D01*
X0270071Y0117302D01*
X0270036Y0117331D01*
X0269999Y0117356D01*
X0269960Y0117377D01*
X0269919Y0117396D01*
X0269877Y0117411D01*
X0269833Y0117422D01*
X0269789Y0117430D01*
X0269744Y0117434D01*
X0269700Y0117434D01*
X0269655Y0117430D01*
X0269611Y0117422D01*
X0269567Y0117411D01*
X0269525Y0117396D01*
X0269484Y0117377D01*
X0269445Y0117356D01*
X0269408Y0117331D01*
X0269373Y0117302D01*
X0269341Y0117271D01*
X0269311Y0117238D01*
X0269285Y0117202D01*
X0269261Y0117164D01*
X0269241Y0117123D01*
X0269224Y0117082D01*
X0269211Y0117039D01*
X0269202Y0116995D01*
X0269196Y0116951D01*
X0269194Y0116906D01*
X0269194Y0117011D02*
X0269194Y0116589D01*
X0269194Y0117011D02*
X0269192Y0117051D01*
X0269186Y0117091D01*
X0269177Y0117130D01*
X0269164Y0117168D01*
X0269147Y0117204D01*
X0269127Y0117239D01*
X0269104Y0117272D01*
X0269077Y0117302D01*
X0269048Y0117330D01*
X0269017Y0117355D01*
X0268983Y0117376D01*
X0268947Y0117395D01*
X0268910Y0117410D01*
X0268871Y0117421D01*
X0268832Y0117429D01*
X0268792Y0117433D01*
X0268752Y0117433D01*
X0268712Y0117429D01*
X0268673Y0117421D01*
X0268634Y0117410D01*
X0268597Y0117395D01*
X0268561Y0117376D01*
X0268527Y0117355D01*
X0268496Y0117330D01*
X0268467Y0117302D01*
X0268440Y0117272D01*
X0268417Y0117239D01*
X0268397Y0117204D01*
X0268380Y0117168D01*
X0268367Y0117130D01*
X0268358Y0117091D01*
X0268352Y0117051D01*
X0268350Y0117011D01*
X0268350Y0116378D01*
X0268350Y0115411D02*
X0268350Y0114989D01*
X0268352Y0114950D01*
X0268357Y0114911D01*
X0268366Y0114873D01*
X0268379Y0114837D01*
X0268394Y0114801D01*
X0268413Y0114767D01*
X0268435Y0114735D01*
X0268460Y0114705D01*
X0268488Y0114677D01*
X0268518Y0114652D01*
X0268550Y0114630D01*
X0268584Y0114611D01*
X0268620Y0114595D01*
X0268657Y0114583D01*
X0268694Y0114574D01*
X0268733Y0114569D01*
X0268772Y0114567D01*
X0269828Y0114567D01*
X0269867Y0114569D01*
X0269906Y0114574D01*
X0269943Y0114583D01*
X0269980Y0114595D01*
X0270016Y0114611D01*
X0270050Y0114630D01*
X0270082Y0114652D01*
X0270112Y0114677D01*
X0270140Y0114705D01*
X0270165Y0114735D01*
X0270187Y0114767D01*
X0270206Y0114801D01*
X0270222Y0114837D01*
X0270234Y0114874D01*
X0270243Y0114911D01*
X0270248Y0114950D01*
X0270250Y0114989D01*
X0270250Y0115411D01*
X0236150Y0130741D02*
X0236150Y0130952D01*
X0236148Y0130991D01*
X0236143Y0131030D01*
X0236134Y0131067D01*
X0236122Y0131104D01*
X0236106Y0131140D01*
X0236087Y0131174D01*
X0236065Y0131206D01*
X0236040Y0131236D01*
X0236012Y0131264D01*
X0235982Y0131289D01*
X0235950Y0131311D01*
X0235916Y0131330D01*
X0235880Y0131346D01*
X0235843Y0131358D01*
X0235806Y0131367D01*
X0235767Y0131372D01*
X0235728Y0131374D01*
X0234250Y0131374D01*
X0234672Y0132534D02*
X0234250Y0133062D01*
X0236150Y0133062D01*
X0236150Y0132534D02*
X0236150Y0133590D01*
X0235886Y0135592D02*
X0235822Y0135621D01*
X0235756Y0135648D01*
X0235689Y0135672D01*
X0235621Y0135692D01*
X0235552Y0135710D01*
X0235483Y0135724D01*
X0235412Y0135736D01*
X0235342Y0135744D01*
X0235271Y0135748D01*
X0235200Y0135750D01*
X0235200Y0134694D02*
X0235129Y0134696D01*
X0235058Y0134700D01*
X0234988Y0134708D01*
X0234917Y0134720D01*
X0234848Y0134734D01*
X0234779Y0134752D01*
X0234711Y0134772D01*
X0234644Y0134796D01*
X0234578Y0134823D01*
X0234514Y0134852D01*
X0234250Y0135222D02*
X0234252Y0135259D01*
X0234257Y0135296D01*
X0234266Y0135332D01*
X0234278Y0135368D01*
X0234294Y0135402D01*
X0234312Y0135434D01*
X0234334Y0135464D01*
X0234359Y0135492D01*
X0234386Y0135518D01*
X0234415Y0135541D01*
X0234446Y0135561D01*
X0234480Y0135578D01*
X0234514Y0135592D01*
X0234672Y0135644D02*
X0235728Y0134800D01*
X0236150Y0135222D02*
X0236148Y0135259D01*
X0236143Y0135296D01*
X0236134Y0135332D01*
X0236122Y0135368D01*
X0236106Y0135402D01*
X0236088Y0135434D01*
X0236066Y0135464D01*
X0236042Y0135492D01*
X0236014Y0135518D01*
X0235985Y0135541D01*
X0235954Y0135561D01*
X0235920Y0135578D01*
X0235886Y0135592D01*
X0236150Y0135222D02*
X0236148Y0135185D01*
X0236143Y0135148D01*
X0236134Y0135112D01*
X0236122Y0135076D01*
X0236106Y0135042D01*
X0236088Y0135010D01*
X0236066Y0134980D01*
X0236042Y0134952D01*
X0236014Y0134926D01*
X0235985Y0134903D01*
X0235954Y0134883D01*
X0235920Y0134866D01*
X0235886Y0134852D01*
X0235200Y0135750D02*
X0235129Y0135748D01*
X0235058Y0135744D01*
X0234988Y0135736D01*
X0234917Y0135724D01*
X0234848Y0135710D01*
X0234779Y0135692D01*
X0234711Y0135672D01*
X0234644Y0135648D01*
X0234578Y0135621D01*
X0234514Y0135592D01*
X0234250Y0135222D02*
X0234252Y0135185D01*
X0234257Y0135148D01*
X0234266Y0135112D01*
X0234278Y0135076D01*
X0234294Y0135042D01*
X0234312Y0135010D01*
X0234334Y0134980D01*
X0234359Y0134952D01*
X0234386Y0134926D01*
X0234415Y0134903D01*
X0234446Y0134883D01*
X0234480Y0134866D01*
X0234514Y0134852D01*
X0235200Y0134694D02*
X0235271Y0134696D01*
X0235342Y0134700D01*
X0235412Y0134708D01*
X0235483Y0134720D01*
X0235552Y0134734D01*
X0235621Y0134752D01*
X0235689Y0134772D01*
X0235756Y0134796D01*
X0235822Y0134823D01*
X0235886Y0134852D01*
X0242850Y0141883D02*
X0244328Y0141883D01*
X0244367Y0141881D01*
X0244406Y0141876D01*
X0244443Y0141867D01*
X0244480Y0141855D01*
X0244516Y0141839D01*
X0244550Y0141820D01*
X0244582Y0141798D01*
X0244612Y0141773D01*
X0244640Y0141745D01*
X0244665Y0141715D01*
X0244687Y0141683D01*
X0244706Y0141649D01*
X0244722Y0141613D01*
X0244734Y0141576D01*
X0244743Y0141539D01*
X0244748Y0141500D01*
X0244750Y0141461D01*
X0244750Y0141250D01*
X0244750Y0143044D02*
X0244750Y0144099D01*
X0244750Y0143572D02*
X0242850Y0143572D01*
X0243272Y0143044D01*
X0236150Y0152901D02*
X0236150Y0153112D01*
X0236148Y0153151D01*
X0236143Y0153190D01*
X0236134Y0153227D01*
X0236122Y0153264D01*
X0236106Y0153300D01*
X0236087Y0153334D01*
X0236065Y0153366D01*
X0236040Y0153396D01*
X0236012Y0153424D01*
X0235982Y0153449D01*
X0235950Y0153471D01*
X0235916Y0153490D01*
X0235880Y0153506D01*
X0235843Y0153518D01*
X0235806Y0153527D01*
X0235767Y0153532D01*
X0235728Y0153534D01*
X0234250Y0153534D01*
X0234672Y0154800D02*
X0234712Y0154802D01*
X0234752Y0154808D01*
X0234791Y0154817D01*
X0234829Y0154830D01*
X0234865Y0154847D01*
X0234900Y0154867D01*
X0234933Y0154890D01*
X0234963Y0154917D01*
X0234991Y0154946D01*
X0235016Y0154977D01*
X0235037Y0155011D01*
X0235056Y0155047D01*
X0235071Y0155084D01*
X0235082Y0155123D01*
X0235090Y0155162D01*
X0235094Y0155202D01*
X0235094Y0155242D01*
X0235090Y0155282D01*
X0235082Y0155321D01*
X0235071Y0155360D01*
X0235056Y0155397D01*
X0235037Y0155433D01*
X0235016Y0155467D01*
X0234991Y0155498D01*
X0234963Y0155527D01*
X0234933Y0155554D01*
X0234900Y0155577D01*
X0234865Y0155597D01*
X0234829Y0155614D01*
X0234791Y0155627D01*
X0234752Y0155636D01*
X0234712Y0155642D01*
X0234672Y0155644D01*
X0234632Y0155642D01*
X0234592Y0155636D01*
X0234553Y0155627D01*
X0234515Y0155614D01*
X0234479Y0155597D01*
X0234444Y0155577D01*
X0234411Y0155554D01*
X0234381Y0155527D01*
X0234353Y0155498D01*
X0234328Y0155467D01*
X0234307Y0155433D01*
X0234288Y0155397D01*
X0234273Y0155360D01*
X0234262Y0155321D01*
X0234254Y0155282D01*
X0234250Y0155242D01*
X0234250Y0155202D01*
X0234254Y0155162D01*
X0234262Y0155123D01*
X0234273Y0155084D01*
X0234288Y0155047D01*
X0234307Y0155011D01*
X0234328Y0154977D01*
X0234353Y0154946D01*
X0234381Y0154917D01*
X0234411Y0154890D01*
X0234444Y0154867D01*
X0234479Y0154847D01*
X0234515Y0154830D01*
X0234553Y0154817D01*
X0234592Y0154808D01*
X0234632Y0154802D01*
X0234672Y0154800D01*
X0235622Y0154694D02*
X0235667Y0154696D01*
X0235711Y0154702D01*
X0235755Y0154711D01*
X0235798Y0154724D01*
X0235839Y0154741D01*
X0235880Y0154761D01*
X0235918Y0154785D01*
X0235954Y0154811D01*
X0235987Y0154841D01*
X0236018Y0154873D01*
X0236047Y0154908D01*
X0236072Y0154945D01*
X0236093Y0154984D01*
X0236112Y0155025D01*
X0236127Y0155067D01*
X0236138Y0155111D01*
X0236146Y0155155D01*
X0236150Y0155200D01*
X0236150Y0155244D01*
X0236146Y0155289D01*
X0236138Y0155333D01*
X0236127Y0155377D01*
X0236112Y0155419D01*
X0236093Y0155460D01*
X0236072Y0155499D01*
X0236047Y0155536D01*
X0236018Y0155571D01*
X0235987Y0155603D01*
X0235954Y0155633D01*
X0235918Y0155659D01*
X0235880Y0155683D01*
X0235839Y0155703D01*
X0235798Y0155720D01*
X0235755Y0155733D01*
X0235711Y0155742D01*
X0235667Y0155748D01*
X0235622Y0155750D01*
X0235577Y0155748D01*
X0235533Y0155742D01*
X0235489Y0155733D01*
X0235446Y0155720D01*
X0235405Y0155703D01*
X0235364Y0155683D01*
X0235326Y0155659D01*
X0235290Y0155633D01*
X0235257Y0155603D01*
X0235226Y0155571D01*
X0235197Y0155536D01*
X0235172Y0155499D01*
X0235151Y0155460D01*
X0235132Y0155419D01*
X0235117Y0155377D01*
X0235106Y0155333D01*
X0235098Y0155289D01*
X0235094Y0155244D01*
X0235094Y0155200D01*
X0235098Y0155155D01*
X0235106Y0155111D01*
X0235117Y0155067D01*
X0235132Y0155025D01*
X0235151Y0154984D01*
X0235172Y0154945D01*
X0235197Y0154908D01*
X0235226Y0154873D01*
X0235257Y0154841D01*
X0235290Y0154811D01*
X0235326Y0154785D01*
X0235364Y0154761D01*
X0235405Y0154741D01*
X0235446Y0154724D01*
X0235489Y0154711D01*
X0235533Y0154702D01*
X0235577Y0154696D01*
X0235622Y0154694D01*
X0275850Y0174989D02*
X0275850Y0175411D01*
X0275850Y0174989D02*
X0275852Y0174950D01*
X0275857Y0174911D01*
X0275866Y0174873D01*
X0275879Y0174837D01*
X0275894Y0174801D01*
X0275913Y0174767D01*
X0275935Y0174735D01*
X0275960Y0174705D01*
X0275988Y0174677D01*
X0276018Y0174652D01*
X0276050Y0174630D01*
X0276084Y0174611D01*
X0276120Y0174595D01*
X0276157Y0174583D01*
X0276194Y0174574D01*
X0276233Y0174569D01*
X0276272Y0174567D01*
X0277328Y0174567D01*
X0277367Y0174569D01*
X0277406Y0174574D01*
X0277443Y0174583D01*
X0277480Y0174595D01*
X0277516Y0174611D01*
X0277550Y0174630D01*
X0277582Y0174652D01*
X0277612Y0174677D01*
X0277640Y0174705D01*
X0277665Y0174735D01*
X0277687Y0174767D01*
X0277706Y0174801D01*
X0277722Y0174837D01*
X0277734Y0174874D01*
X0277743Y0174911D01*
X0277748Y0174950D01*
X0277750Y0174989D01*
X0277750Y0175411D01*
X0277750Y0176378D02*
X0277750Y0177433D01*
X0277750Y0176906D02*
X0275850Y0176906D01*
X0276272Y0176378D01*
X0284350Y0166896D02*
X0286250Y0166896D01*
X0286250Y0166368D02*
X0286250Y0167424D01*
X0284772Y0166368D02*
X0284350Y0166896D01*
X0284350Y0165421D02*
X0284350Y0164576D01*
X0286250Y0164576D01*
X0285194Y0164576D02*
X0285194Y0165421D01*
X0360350Y0177383D02*
X0361828Y0177383D01*
X0361867Y0177381D01*
X0361906Y0177376D01*
X0361943Y0177367D01*
X0361980Y0177355D01*
X0362016Y0177339D01*
X0362050Y0177320D01*
X0362082Y0177298D01*
X0362112Y0177273D01*
X0362140Y0177245D01*
X0362165Y0177215D01*
X0362187Y0177183D01*
X0362206Y0177149D01*
X0362222Y0177113D01*
X0362234Y0177076D01*
X0362243Y0177039D01*
X0362248Y0177000D01*
X0362250Y0176961D01*
X0362250Y0176750D01*
X0361722Y0178544D02*
X0361194Y0178544D01*
X0361194Y0179177D01*
X0361194Y0178544D02*
X0361136Y0178546D01*
X0361079Y0178552D01*
X0361022Y0178562D01*
X0360966Y0178575D01*
X0360911Y0178593D01*
X0360858Y0178614D01*
X0360806Y0178639D01*
X0360755Y0178667D01*
X0360707Y0178698D01*
X0360661Y0178733D01*
X0360618Y0178771D01*
X0360577Y0178812D01*
X0360539Y0178855D01*
X0360504Y0178901D01*
X0360473Y0178949D01*
X0360445Y0179000D01*
X0360420Y0179052D01*
X0360399Y0179105D01*
X0360381Y0179160D01*
X0360368Y0179216D01*
X0360358Y0179273D01*
X0360352Y0179330D01*
X0360350Y0179388D01*
X0361195Y0179177D02*
X0361197Y0179216D01*
X0361202Y0179255D01*
X0361211Y0179292D01*
X0361223Y0179329D01*
X0361239Y0179365D01*
X0361258Y0179399D01*
X0361280Y0179431D01*
X0361305Y0179461D01*
X0361333Y0179489D01*
X0361363Y0179514D01*
X0361395Y0179536D01*
X0361429Y0179555D01*
X0361465Y0179571D01*
X0361502Y0179583D01*
X0361539Y0179592D01*
X0361578Y0179597D01*
X0361617Y0179599D01*
X0361722Y0179599D01*
X0361722Y0179600D02*
X0361767Y0179598D01*
X0361811Y0179592D01*
X0361855Y0179583D01*
X0361898Y0179570D01*
X0361939Y0179553D01*
X0361980Y0179533D01*
X0362018Y0179509D01*
X0362054Y0179483D01*
X0362087Y0179453D01*
X0362118Y0179421D01*
X0362147Y0179386D01*
X0362172Y0179349D01*
X0362193Y0179310D01*
X0362212Y0179269D01*
X0362227Y0179227D01*
X0362238Y0179183D01*
X0362246Y0179139D01*
X0362250Y0179094D01*
X0362250Y0179050D01*
X0362246Y0179005D01*
X0362238Y0178961D01*
X0362227Y0178917D01*
X0362212Y0178875D01*
X0362193Y0178834D01*
X0362172Y0178795D01*
X0362147Y0178758D01*
X0362118Y0178723D01*
X0362087Y0178691D01*
X0362054Y0178661D01*
X0362018Y0178635D01*
X0361980Y0178611D01*
X0361939Y0178591D01*
X0361898Y0178574D01*
X0361855Y0178561D01*
X0361811Y0178552D01*
X0361767Y0178546D01*
X0361722Y0178544D01*
X0333953Y0218047D02*
X0331197Y0218047D01*
X0333953Y0218047D02*
X0333953Y0220803D01*
X0280803Y0218047D02*
X0278047Y0218047D01*
X0278047Y0220803D01*
X0236650Y0237401D02*
X0236650Y0237612D01*
X0236648Y0237651D01*
X0236643Y0237690D01*
X0236634Y0237727D01*
X0236622Y0237764D01*
X0236606Y0237800D01*
X0236587Y0237834D01*
X0236565Y0237866D01*
X0236540Y0237896D01*
X0236512Y0237924D01*
X0236482Y0237949D01*
X0236450Y0237971D01*
X0236416Y0237990D01*
X0236380Y0238006D01*
X0236343Y0238018D01*
X0236306Y0238027D01*
X0236267Y0238032D01*
X0236228Y0238034D01*
X0234750Y0238034D01*
X0234750Y0239194D02*
X0234750Y0239828D01*
X0234752Y0239868D01*
X0234758Y0239908D01*
X0234767Y0239947D01*
X0234780Y0239985D01*
X0234797Y0240021D01*
X0234817Y0240056D01*
X0234840Y0240089D01*
X0234867Y0240119D01*
X0234896Y0240147D01*
X0234927Y0240172D01*
X0234961Y0240193D01*
X0234997Y0240212D01*
X0235034Y0240227D01*
X0235073Y0240238D01*
X0235112Y0240246D01*
X0235152Y0240250D01*
X0235192Y0240250D01*
X0235232Y0240246D01*
X0235271Y0240238D01*
X0235310Y0240227D01*
X0235347Y0240212D01*
X0235383Y0240193D01*
X0235417Y0240172D01*
X0235448Y0240147D01*
X0235477Y0240119D01*
X0235504Y0240089D01*
X0235527Y0240056D01*
X0235547Y0240021D01*
X0235564Y0239985D01*
X0235577Y0239947D01*
X0235586Y0239908D01*
X0235592Y0239868D01*
X0235594Y0239828D01*
X0235594Y0239406D01*
X0235594Y0239722D02*
X0235596Y0239767D01*
X0235602Y0239811D01*
X0235611Y0239855D01*
X0235624Y0239898D01*
X0235641Y0239939D01*
X0235661Y0239980D01*
X0235685Y0240018D01*
X0235711Y0240054D01*
X0235741Y0240087D01*
X0235773Y0240118D01*
X0235808Y0240147D01*
X0235845Y0240172D01*
X0235884Y0240193D01*
X0235925Y0240212D01*
X0235967Y0240227D01*
X0236011Y0240238D01*
X0236055Y0240246D01*
X0236100Y0240250D01*
X0236144Y0240250D01*
X0236189Y0240246D01*
X0236233Y0240238D01*
X0236277Y0240227D01*
X0236319Y0240212D01*
X0236360Y0240193D01*
X0236399Y0240172D01*
X0236436Y0240147D01*
X0236471Y0240118D01*
X0236503Y0240087D01*
X0236533Y0240054D01*
X0236559Y0240018D01*
X0236583Y0239980D01*
X0236603Y0239939D01*
X0236620Y0239898D01*
X0236633Y0239855D01*
X0236642Y0239811D01*
X0236648Y0239767D01*
X0236650Y0239722D01*
X0236650Y0239194D01*
X0278441Y0271197D02*
X0280803Y0273559D01*
X0303420Y0281778D02*
X0303420Y0283150D01*
X0304476Y0283150D02*
X0304476Y0281778D01*
X0304474Y0281733D01*
X0304468Y0281689D01*
X0304459Y0281645D01*
X0304446Y0281602D01*
X0304429Y0281561D01*
X0304409Y0281520D01*
X0304385Y0281482D01*
X0304359Y0281446D01*
X0304329Y0281413D01*
X0304297Y0281382D01*
X0304262Y0281353D01*
X0304225Y0281328D01*
X0304186Y0281307D01*
X0304145Y0281288D01*
X0304103Y0281273D01*
X0304059Y0281262D01*
X0304015Y0281254D01*
X0303970Y0281250D01*
X0303926Y0281250D01*
X0303881Y0281254D01*
X0303837Y0281262D01*
X0303793Y0281273D01*
X0303751Y0281288D01*
X0303710Y0281307D01*
X0303671Y0281328D01*
X0303634Y0281353D01*
X0303599Y0281382D01*
X0303567Y0281413D01*
X0303537Y0281446D01*
X0303511Y0281482D01*
X0303487Y0281520D01*
X0303467Y0281561D01*
X0303450Y0281602D01*
X0303437Y0281645D01*
X0303428Y0281689D01*
X0303422Y0281733D01*
X0303420Y0281778D01*
X0305772Y0282358D02*
X0306036Y0282200D01*
X0306300Y0282042D01*
X0306458Y0282833D02*
X0306410Y0282860D01*
X0306361Y0282883D01*
X0306310Y0282903D01*
X0306258Y0282920D01*
X0306204Y0282933D01*
X0306150Y0282943D01*
X0306096Y0282949D01*
X0306041Y0282952D01*
X0305987Y0282951D01*
X0305932Y0282946D01*
X0305878Y0282938D01*
X0306036Y0283150D02*
X0306036Y0281250D01*
X0306195Y0281461D02*
X0306228Y0281469D01*
X0306261Y0281481D01*
X0306292Y0281496D01*
X0306321Y0281515D01*
X0306348Y0281536D01*
X0306373Y0281561D01*
X0306394Y0281588D01*
X0306413Y0281617D01*
X0306428Y0281648D01*
X0306440Y0281681D01*
X0306448Y0281715D01*
X0306452Y0281749D01*
X0306453Y0281784D01*
X0306449Y0281818D01*
X0306442Y0281852D01*
X0306432Y0281885D01*
X0306417Y0281917D01*
X0306400Y0281946D01*
X0306379Y0281974D01*
X0306355Y0281999D01*
X0306329Y0282022D01*
X0306300Y0282041D01*
X0306194Y0281462D02*
X0306140Y0281454D01*
X0306085Y0281449D01*
X0306031Y0281448D01*
X0305976Y0281451D01*
X0305922Y0281457D01*
X0305868Y0281467D01*
X0305814Y0281480D01*
X0305762Y0281497D01*
X0305711Y0281517D01*
X0305662Y0281540D01*
X0305614Y0281567D01*
X0305772Y0282359D02*
X0305743Y0282378D01*
X0305717Y0282401D01*
X0305693Y0282426D01*
X0305672Y0282454D01*
X0305655Y0282483D01*
X0305640Y0282515D01*
X0305630Y0282548D01*
X0305623Y0282582D01*
X0305619Y0282616D01*
X0305620Y0282651D01*
X0305624Y0282685D01*
X0305632Y0282719D01*
X0305644Y0282752D01*
X0305659Y0282783D01*
X0305678Y0282812D01*
X0305699Y0282839D01*
X0305724Y0282864D01*
X0305751Y0282885D01*
X0305780Y0282904D01*
X0305811Y0282919D01*
X0305844Y0282931D01*
X0305877Y0282939D01*
X0307524Y0282728D02*
X0308052Y0283150D01*
X0308052Y0281250D01*
X0307524Y0281250D02*
X0308580Y0281250D01*
X0297661Y0298750D02*
X0296605Y0298750D01*
X0297133Y0298750D02*
X0297133Y0300650D01*
X0296605Y0300228D01*
X0295606Y0300650D02*
X0294973Y0299753D01*
X0294973Y0298750D01*
X0294973Y0299753D02*
X0294339Y0300650D01*
X0331197Y0273953D02*
X0333953Y0273953D01*
X0333953Y0271197D01*
X0360350Y0259599D02*
X0360350Y0258544D01*
X0361194Y0258544D01*
X0361194Y0259177D01*
X0361195Y0259177D02*
X0361197Y0259216D01*
X0361202Y0259255D01*
X0361211Y0259292D01*
X0361223Y0259329D01*
X0361239Y0259365D01*
X0361258Y0259399D01*
X0361280Y0259431D01*
X0361305Y0259461D01*
X0361333Y0259489D01*
X0361363Y0259514D01*
X0361395Y0259536D01*
X0361429Y0259555D01*
X0361465Y0259571D01*
X0361502Y0259583D01*
X0361539Y0259592D01*
X0361578Y0259597D01*
X0361617Y0259599D01*
X0361828Y0259599D01*
X0361867Y0259597D01*
X0361906Y0259592D01*
X0361943Y0259583D01*
X0361980Y0259571D01*
X0362016Y0259555D01*
X0362050Y0259536D01*
X0362082Y0259514D01*
X0362112Y0259489D01*
X0362140Y0259461D01*
X0362165Y0259431D01*
X0362187Y0259399D01*
X0362206Y0259365D01*
X0362222Y0259329D01*
X0362234Y0259292D01*
X0362243Y0259255D01*
X0362248Y0259216D01*
X0362250Y0259177D01*
X0362250Y0258544D01*
X0361828Y0257383D02*
X0360350Y0257383D01*
X0361828Y0257383D02*
X0361867Y0257381D01*
X0361906Y0257376D01*
X0361943Y0257367D01*
X0361980Y0257355D01*
X0362016Y0257339D01*
X0362050Y0257320D01*
X0362082Y0257298D01*
X0362112Y0257273D01*
X0362140Y0257245D01*
X0362165Y0257215D01*
X0362187Y0257183D01*
X0362206Y0257149D01*
X0362222Y0257113D01*
X0362234Y0257076D01*
X0362243Y0257039D01*
X0362248Y0257000D01*
X0362250Y0256961D01*
X0362250Y0256750D01*
X0302572Y0325750D02*
X0301516Y0325750D01*
X0302044Y0325750D02*
X0302044Y0327650D01*
X0301516Y0327228D01*
X0300273Y0326542D02*
X0299692Y0326858D01*
X0299903Y0327650D02*
X0299954Y0327648D01*
X0300005Y0327643D01*
X0300055Y0327635D01*
X0300105Y0327624D01*
X0300153Y0327609D01*
X0300201Y0327592D01*
X0300248Y0327571D01*
X0300293Y0327547D01*
X0300336Y0327521D01*
X0300378Y0327492D01*
X0299692Y0326858D02*
X0299658Y0326881D01*
X0299627Y0326906D01*
X0299598Y0326934D01*
X0299571Y0326965D01*
X0299548Y0326998D01*
X0299528Y0327033D01*
X0299511Y0327070D01*
X0299498Y0327108D01*
X0299489Y0327147D01*
X0299483Y0327188D01*
X0299481Y0327228D01*
X0299483Y0327267D01*
X0299488Y0327306D01*
X0299497Y0327343D01*
X0299509Y0327380D01*
X0299525Y0327416D01*
X0299544Y0327450D01*
X0299566Y0327482D01*
X0299591Y0327512D01*
X0299619Y0327540D01*
X0299649Y0327565D01*
X0299681Y0327587D01*
X0299715Y0327606D01*
X0299751Y0327622D01*
X0299788Y0327634D01*
X0299825Y0327643D01*
X0299864Y0327648D01*
X0299903Y0327650D01*
X0299429Y0326014D02*
X0299471Y0325974D01*
X0299517Y0325936D01*
X0299564Y0325902D01*
X0299614Y0325871D01*
X0299666Y0325843D01*
X0299719Y0325819D01*
X0299774Y0325798D01*
X0299830Y0325781D01*
X0299887Y0325767D01*
X0299945Y0325758D01*
X0300003Y0325752D01*
X0300062Y0325750D01*
X0300101Y0325752D01*
X0300140Y0325757D01*
X0300177Y0325766D01*
X0300214Y0325778D01*
X0300250Y0325794D01*
X0300284Y0325813D01*
X0300316Y0325835D01*
X0300346Y0325860D01*
X0300374Y0325888D01*
X0300399Y0325918D01*
X0300421Y0325950D01*
X0300440Y0325984D01*
X0300456Y0326020D01*
X0300468Y0326057D01*
X0300477Y0326094D01*
X0300482Y0326133D01*
X0300484Y0326172D01*
X0300482Y0326212D01*
X0300476Y0326253D01*
X0300467Y0326292D01*
X0300454Y0326330D01*
X0300437Y0326367D01*
X0300417Y0326402D01*
X0300394Y0326435D01*
X0300367Y0326466D01*
X0300338Y0326494D01*
X0300307Y0326519D01*
X0300273Y0326542D01*
X0321250Y0334250D02*
X0321461Y0334250D01*
X0321500Y0334252D01*
X0321539Y0334257D01*
X0321576Y0334266D01*
X0321613Y0334278D01*
X0321649Y0334294D01*
X0321683Y0334313D01*
X0321715Y0334335D01*
X0321745Y0334360D01*
X0321773Y0334388D01*
X0321798Y0334418D01*
X0321820Y0334450D01*
X0321839Y0334484D01*
X0321855Y0334520D01*
X0321867Y0334557D01*
X0321876Y0334594D01*
X0321881Y0334633D01*
X0321883Y0334672D01*
X0321883Y0336150D01*
X0323044Y0335622D02*
X0323044Y0335517D01*
X0323046Y0335478D01*
X0323051Y0335439D01*
X0323060Y0335402D01*
X0323072Y0335365D01*
X0323088Y0335329D01*
X0323107Y0335295D01*
X0323129Y0335263D01*
X0323154Y0335233D01*
X0323182Y0335205D01*
X0323212Y0335180D01*
X0323244Y0335158D01*
X0323278Y0335139D01*
X0323314Y0335123D01*
X0323351Y0335111D01*
X0323388Y0335102D01*
X0323427Y0335097D01*
X0323466Y0335095D01*
X0323466Y0335094D02*
X0324099Y0335094D01*
X0324099Y0335622D01*
X0324100Y0335622D02*
X0324098Y0335667D01*
X0324092Y0335711D01*
X0324083Y0335755D01*
X0324070Y0335798D01*
X0324053Y0335839D01*
X0324033Y0335880D01*
X0324009Y0335918D01*
X0323983Y0335954D01*
X0323953Y0335987D01*
X0323921Y0336018D01*
X0323886Y0336047D01*
X0323849Y0336072D01*
X0323810Y0336093D01*
X0323769Y0336112D01*
X0323727Y0336127D01*
X0323683Y0336138D01*
X0323639Y0336146D01*
X0323594Y0336150D01*
X0323550Y0336150D01*
X0323505Y0336146D01*
X0323461Y0336138D01*
X0323417Y0336127D01*
X0323375Y0336112D01*
X0323334Y0336093D01*
X0323295Y0336072D01*
X0323258Y0336047D01*
X0323223Y0336018D01*
X0323191Y0335987D01*
X0323161Y0335954D01*
X0323135Y0335918D01*
X0323111Y0335880D01*
X0323091Y0335839D01*
X0323074Y0335798D01*
X0323061Y0335755D01*
X0323052Y0335711D01*
X0323046Y0335667D01*
X0323044Y0335622D01*
X0324099Y0335094D02*
X0324097Y0335039D01*
X0324092Y0334984D01*
X0324083Y0334929D01*
X0324070Y0334876D01*
X0324054Y0334823D01*
X0324035Y0334771D01*
X0324012Y0334721D01*
X0323986Y0334672D01*
X0323957Y0334625D01*
X0323925Y0334580D01*
X0323890Y0334538D01*
X0323852Y0334497D01*
X0323811Y0334459D01*
X0323769Y0334424D01*
X0323724Y0334392D01*
X0323677Y0334363D01*
X0323628Y0334337D01*
X0323578Y0334314D01*
X0323526Y0334295D01*
X0323473Y0334279D01*
X0323420Y0334266D01*
X0323365Y0334257D01*
X0323310Y0334252D01*
X0323255Y0334250D01*
X0236650Y0324722D02*
X0234750Y0325250D01*
X0234750Y0324194D01*
X0234961Y0324194D01*
X0234750Y0323034D02*
X0236228Y0323034D01*
X0236267Y0323032D01*
X0236306Y0323027D01*
X0236343Y0323018D01*
X0236380Y0323006D01*
X0236416Y0322990D01*
X0236450Y0322971D01*
X0236482Y0322949D01*
X0236512Y0322924D01*
X0236540Y0322896D01*
X0236565Y0322866D01*
X0236587Y0322834D01*
X0236606Y0322800D01*
X0236622Y0322764D01*
X0236634Y0322727D01*
X0236643Y0322690D01*
X0236648Y0322651D01*
X0236650Y0322612D01*
X0236650Y0322401D01*
D13*
X0280880Y0291000D02*
X0281120Y0291000D01*
X0310880Y0291000D02*
X0311120Y0291000D01*
X0271120Y0176000D02*
X0270880Y0176000D01*
D14*
X0268200Y0174587D02*
X0268200Y0173754D01*
X0267367Y0174462D01*
X0266700Y0174212D02*
X0266702Y0174172D01*
X0266707Y0174132D01*
X0266715Y0174092D01*
X0266727Y0174053D01*
X0266742Y0174016D01*
X0266760Y0173980D01*
X0266781Y0173945D01*
X0266804Y0173912D01*
X0266831Y0173882D01*
X0266860Y0173854D01*
X0266891Y0173828D01*
X0266924Y0173805D01*
X0266959Y0173785D01*
X0266996Y0173767D01*
X0267034Y0173753D01*
X0267367Y0174462D02*
X0267341Y0174487D01*
X0267312Y0174510D01*
X0267282Y0174530D01*
X0267250Y0174547D01*
X0267217Y0174561D01*
X0267182Y0174572D01*
X0267147Y0174580D01*
X0267111Y0174585D01*
X0267075Y0174587D01*
X0267038Y0174585D01*
X0267002Y0174580D01*
X0266966Y0174571D01*
X0266931Y0174558D01*
X0266898Y0174543D01*
X0266867Y0174524D01*
X0266837Y0174502D01*
X0266810Y0174477D01*
X0266785Y0174450D01*
X0266763Y0174420D01*
X0266744Y0174389D01*
X0266729Y0174356D01*
X0266716Y0174321D01*
X0266707Y0174285D01*
X0266702Y0174249D01*
X0266700Y0174212D01*
X0266700Y0173217D02*
X0266700Y0172883D01*
X0266702Y0172848D01*
X0266707Y0172814D01*
X0266716Y0172780D01*
X0266729Y0172748D01*
X0266745Y0172716D01*
X0266764Y0172687D01*
X0266786Y0172660D01*
X0266810Y0172636D01*
X0266837Y0172614D01*
X0266867Y0172595D01*
X0266898Y0172579D01*
X0266930Y0172566D01*
X0266964Y0172557D01*
X0266998Y0172552D01*
X0267033Y0172550D01*
X0267867Y0172550D01*
X0267902Y0172552D01*
X0267936Y0172557D01*
X0267970Y0172566D01*
X0268002Y0172579D01*
X0268034Y0172595D01*
X0268063Y0172614D01*
X0268090Y0172636D01*
X0268114Y0172660D01*
X0268136Y0172687D01*
X0268155Y0172717D01*
X0268171Y0172748D01*
X0268184Y0172780D01*
X0268193Y0172814D01*
X0268198Y0172848D01*
X0268200Y0172883D01*
X0268200Y0173217D01*
X0307800Y0189217D02*
X0307800Y0190300D01*
X0308633Y0190300D02*
X0308633Y0189217D01*
X0308634Y0189217D02*
X0308632Y0189177D01*
X0308626Y0189138D01*
X0308617Y0189100D01*
X0308604Y0189062D01*
X0308588Y0189026D01*
X0308568Y0188992D01*
X0308545Y0188959D01*
X0308519Y0188929D01*
X0308490Y0188902D01*
X0308459Y0188877D01*
X0308426Y0188856D01*
X0308390Y0188838D01*
X0308353Y0188823D01*
X0308315Y0188812D01*
X0308276Y0188804D01*
X0308237Y0188800D01*
X0308197Y0188800D01*
X0308158Y0188804D01*
X0308119Y0188812D01*
X0308081Y0188823D01*
X0308044Y0188838D01*
X0308009Y0188856D01*
X0307975Y0188877D01*
X0307944Y0188902D01*
X0307915Y0188929D01*
X0307889Y0188959D01*
X0307866Y0188992D01*
X0307846Y0189026D01*
X0307830Y0189062D01*
X0307817Y0189100D01*
X0307808Y0189138D01*
X0307802Y0189177D01*
X0307800Y0189217D01*
X0309288Y0188800D02*
X0310121Y0188800D01*
X0309705Y0188800D02*
X0309705Y0190300D01*
X0309288Y0189967D01*
X0277867Y0287550D02*
X0277033Y0287550D01*
X0276998Y0287552D01*
X0276964Y0287557D01*
X0276930Y0287566D01*
X0276898Y0287579D01*
X0276867Y0287595D01*
X0276837Y0287614D01*
X0276810Y0287636D01*
X0276786Y0287660D01*
X0276764Y0287687D01*
X0276745Y0287716D01*
X0276729Y0287748D01*
X0276716Y0287780D01*
X0276707Y0287814D01*
X0276702Y0287848D01*
X0276700Y0287883D01*
X0276700Y0288217D01*
X0276700Y0288754D02*
X0276700Y0289587D01*
X0277367Y0289254D02*
X0277367Y0288754D01*
X0276700Y0288754D01*
X0277367Y0289254D02*
X0277369Y0289289D01*
X0277374Y0289323D01*
X0277383Y0289357D01*
X0277396Y0289389D01*
X0277412Y0289421D01*
X0277431Y0289450D01*
X0277453Y0289477D01*
X0277477Y0289501D01*
X0277504Y0289523D01*
X0277534Y0289542D01*
X0277565Y0289558D01*
X0277597Y0289571D01*
X0277631Y0289580D01*
X0277665Y0289585D01*
X0277700Y0289587D01*
X0277867Y0289587D01*
X0277902Y0289585D01*
X0277936Y0289580D01*
X0277970Y0289571D01*
X0278002Y0289558D01*
X0278034Y0289542D01*
X0278063Y0289523D01*
X0278090Y0289501D01*
X0278114Y0289477D01*
X0278136Y0289450D01*
X0278155Y0289421D01*
X0278171Y0289389D01*
X0278184Y0289357D01*
X0278193Y0289323D01*
X0278198Y0289289D01*
X0278200Y0289254D01*
X0278200Y0288754D01*
X0278200Y0288217D02*
X0278200Y0287883D01*
X0278198Y0287848D01*
X0278193Y0287814D01*
X0278184Y0287780D01*
X0278171Y0287748D01*
X0278155Y0287717D01*
X0278136Y0287687D01*
X0278114Y0287660D01*
X0278090Y0287636D01*
X0278063Y0287614D01*
X0278034Y0287595D01*
X0278002Y0287579D01*
X0277970Y0287566D01*
X0277936Y0287557D01*
X0277902Y0287552D01*
X0277867Y0287550D01*
X0313800Y0292746D02*
X0313800Y0293080D01*
X0313800Y0292746D02*
X0313802Y0292711D01*
X0313807Y0292677D01*
X0313816Y0292643D01*
X0313829Y0292611D01*
X0313845Y0292579D01*
X0313864Y0292550D01*
X0313886Y0292523D01*
X0313910Y0292499D01*
X0313937Y0292477D01*
X0313967Y0292458D01*
X0313998Y0292442D01*
X0314030Y0292429D01*
X0314064Y0292420D01*
X0314098Y0292415D01*
X0314133Y0292413D01*
X0314967Y0292413D01*
X0315002Y0292415D01*
X0315036Y0292420D01*
X0315070Y0292429D01*
X0315102Y0292442D01*
X0315134Y0292458D01*
X0315163Y0292477D01*
X0315190Y0292499D01*
X0315214Y0292523D01*
X0315236Y0292550D01*
X0315255Y0292580D01*
X0315271Y0292611D01*
X0315284Y0292643D01*
X0315293Y0292677D01*
X0315298Y0292711D01*
X0315300Y0292746D01*
X0315300Y0293080D01*
X0314967Y0293617D02*
X0314967Y0294450D01*
X0315300Y0294200D02*
X0314633Y0294200D01*
X0314967Y0293617D02*
X0313800Y0293950D01*
D15*
X0306236Y0292181D02*
X0306236Y0289819D01*
X0298362Y0284307D02*
X0293638Y0284307D01*
X0285764Y0289819D02*
X0285764Y0292181D01*
X0293638Y0297693D02*
X0298362Y0297693D01*
X0295882Y0307339D02*
X0306118Y0307339D01*
X0308087Y0312850D02*
X0309661Y0312850D01*
X0309661Y0319150D01*
X0308087Y0319150D01*
X0296000Y0316000D02*
X0296002Y0316141D01*
X0296008Y0316282D01*
X0296018Y0316422D01*
X0296032Y0316562D01*
X0296050Y0316702D01*
X0296071Y0316841D01*
X0296097Y0316980D01*
X0296126Y0317118D01*
X0296160Y0317254D01*
X0296197Y0317390D01*
X0296238Y0317525D01*
X0296283Y0317659D01*
X0296332Y0317791D01*
X0296384Y0317922D01*
X0296440Y0318051D01*
X0296500Y0318178D01*
X0296563Y0318304D01*
X0296629Y0318428D01*
X0296700Y0318551D01*
X0296773Y0318671D01*
X0296850Y0318789D01*
X0296930Y0318905D01*
X0297014Y0319018D01*
X0297100Y0319129D01*
X0297190Y0319238D01*
X0297283Y0319344D01*
X0297378Y0319447D01*
X0297477Y0319548D01*
X0297578Y0319646D01*
X0297682Y0319741D01*
X0297789Y0319833D01*
X0297898Y0319922D01*
X0298010Y0320007D01*
X0298124Y0320090D01*
X0298240Y0320170D01*
X0298359Y0320246D01*
X0298480Y0320318D01*
X0298602Y0320388D01*
X0298727Y0320453D01*
X0298853Y0320516D01*
X0298981Y0320574D01*
X0299111Y0320629D01*
X0299242Y0320681D01*
X0299375Y0320728D01*
X0299509Y0320772D01*
X0299644Y0320813D01*
X0299780Y0320849D01*
X0299917Y0320881D01*
X0300055Y0320910D01*
X0300193Y0320935D01*
X0300333Y0320955D01*
X0300473Y0320972D01*
X0300613Y0320985D01*
X0300754Y0320994D01*
X0300894Y0320999D01*
X0301035Y0321000D01*
X0301176Y0320997D01*
X0301317Y0320990D01*
X0301457Y0320979D01*
X0301597Y0320964D01*
X0301737Y0320945D01*
X0301876Y0320923D01*
X0302014Y0320896D01*
X0302152Y0320866D01*
X0302288Y0320831D01*
X0302424Y0320793D01*
X0302558Y0320751D01*
X0302692Y0320705D01*
X0302824Y0320656D01*
X0302954Y0320602D01*
X0303083Y0320545D01*
X0303210Y0320485D01*
X0303336Y0320421D01*
X0303459Y0320353D01*
X0303581Y0320282D01*
X0303701Y0320208D01*
X0303818Y0320130D01*
X0303933Y0320049D01*
X0304046Y0319965D01*
X0304157Y0319878D01*
X0304265Y0319787D01*
X0304370Y0319694D01*
X0304473Y0319597D01*
X0304573Y0319498D01*
X0304670Y0319396D01*
X0304764Y0319291D01*
X0304855Y0319184D01*
X0304943Y0319074D01*
X0305028Y0318962D01*
X0305110Y0318847D01*
X0305189Y0318730D01*
X0305264Y0318611D01*
X0305336Y0318490D01*
X0305404Y0318367D01*
X0305469Y0318242D01*
X0305531Y0318115D01*
X0305588Y0317986D01*
X0305643Y0317856D01*
X0305693Y0317725D01*
X0305740Y0317592D01*
X0305783Y0317458D01*
X0305822Y0317322D01*
X0305857Y0317186D01*
X0305889Y0317049D01*
X0305916Y0316911D01*
X0305940Y0316772D01*
X0305960Y0316632D01*
X0305976Y0316492D01*
X0305988Y0316352D01*
X0305996Y0316211D01*
X0306000Y0316070D01*
X0306000Y0315930D01*
X0305996Y0315789D01*
X0305988Y0315648D01*
X0305976Y0315508D01*
X0305960Y0315368D01*
X0305940Y0315228D01*
X0305916Y0315089D01*
X0305889Y0314951D01*
X0305857Y0314814D01*
X0305822Y0314678D01*
X0305783Y0314542D01*
X0305740Y0314408D01*
X0305693Y0314275D01*
X0305643Y0314144D01*
X0305588Y0314014D01*
X0305531Y0313885D01*
X0305469Y0313758D01*
X0305404Y0313633D01*
X0305336Y0313510D01*
X0305264Y0313389D01*
X0305189Y0313270D01*
X0305110Y0313153D01*
X0305028Y0313038D01*
X0304943Y0312926D01*
X0304855Y0312816D01*
X0304764Y0312709D01*
X0304670Y0312604D01*
X0304573Y0312502D01*
X0304473Y0312403D01*
X0304370Y0312306D01*
X0304265Y0312213D01*
X0304157Y0312122D01*
X0304046Y0312035D01*
X0303933Y0311951D01*
X0303818Y0311870D01*
X0303701Y0311792D01*
X0303581Y0311718D01*
X0303459Y0311647D01*
X0303336Y0311579D01*
X0303210Y0311515D01*
X0303083Y0311455D01*
X0302954Y0311398D01*
X0302824Y0311344D01*
X0302692Y0311295D01*
X0302558Y0311249D01*
X0302424Y0311207D01*
X0302288Y0311169D01*
X0302152Y0311134D01*
X0302014Y0311104D01*
X0301876Y0311077D01*
X0301737Y0311055D01*
X0301597Y0311036D01*
X0301457Y0311021D01*
X0301317Y0311010D01*
X0301176Y0311003D01*
X0301035Y0311000D01*
X0300894Y0311001D01*
X0300754Y0311006D01*
X0300613Y0311015D01*
X0300473Y0311028D01*
X0300333Y0311045D01*
X0300193Y0311065D01*
X0300055Y0311090D01*
X0299917Y0311119D01*
X0299780Y0311151D01*
X0299644Y0311187D01*
X0299509Y0311228D01*
X0299375Y0311272D01*
X0299242Y0311319D01*
X0299111Y0311371D01*
X0298981Y0311426D01*
X0298853Y0311484D01*
X0298727Y0311547D01*
X0298602Y0311612D01*
X0298480Y0311682D01*
X0298359Y0311754D01*
X0298240Y0311830D01*
X0298124Y0311910D01*
X0298010Y0311993D01*
X0297898Y0312078D01*
X0297789Y0312167D01*
X0297682Y0312259D01*
X0297578Y0312354D01*
X0297477Y0312452D01*
X0297378Y0312553D01*
X0297283Y0312656D01*
X0297190Y0312762D01*
X0297100Y0312871D01*
X0297014Y0312982D01*
X0296930Y0313095D01*
X0296850Y0313211D01*
X0296773Y0313329D01*
X0296700Y0313449D01*
X0296629Y0313572D01*
X0296563Y0313696D01*
X0296500Y0313822D01*
X0296440Y0313949D01*
X0296384Y0314078D01*
X0296332Y0314209D01*
X0296283Y0314341D01*
X0296238Y0314475D01*
X0296197Y0314610D01*
X0296160Y0314746D01*
X0296126Y0314882D01*
X0296097Y0315020D01*
X0296071Y0315159D01*
X0296050Y0315298D01*
X0296032Y0315438D01*
X0296018Y0315578D01*
X0296008Y0315718D01*
X0296002Y0315859D01*
X0296000Y0316000D01*
X0293913Y0312850D02*
X0292339Y0312850D01*
X0292339Y0319150D01*
X0293913Y0319150D01*
X0295882Y0324661D02*
X0306118Y0324661D01*
X0368500Y0336000D02*
X0373500Y0336000D01*
X0373500Y0256000D02*
X0368500Y0256000D01*
X0373500Y0256000D01*
X0373500Y0176000D02*
X0368500Y0176000D01*
X0368500Y0171000D02*
X0373500Y0171000D01*
X0328717Y0149583D02*
X0328717Y0142890D01*
X0328717Y0149583D02*
X0293283Y0149583D01*
X0293283Y0143283D01*
X0276000Y0138500D02*
X0276000Y0153500D01*
X0266000Y0153500D02*
X0266000Y0138500D01*
X0256000Y0138500D02*
X0256000Y0153500D01*
X0246000Y0153500D02*
X0246000Y0138500D01*
X0228500Y0136000D02*
X0223500Y0136000D01*
X0248500Y0128681D02*
X0253500Y0128681D01*
X0293283Y0127142D02*
X0293283Y0118874D01*
X0301157Y0111000D02*
X0301157Y0097220D01*
X0320843Y0097220D01*
X0320843Y0111000D01*
X0320830Y0111228D01*
X0320811Y0111455D01*
X0320787Y0111682D01*
X0320758Y0111908D01*
X0320723Y0112133D01*
X0320683Y0112357D01*
X0320637Y0112580D01*
X0320586Y0112803D01*
X0320530Y0113023D01*
X0320468Y0113243D01*
X0320401Y0113461D01*
X0320329Y0113677D01*
X0320251Y0113891D01*
X0320169Y0114103D01*
X0320081Y0114314D01*
X0319988Y0114522D01*
X0319890Y0114728D01*
X0319788Y0114931D01*
X0319680Y0115132D01*
X0319568Y0115330D01*
X0319450Y0115526D01*
X0319329Y0115718D01*
X0319202Y0115908D01*
X0319071Y0116095D01*
X0318936Y0116278D01*
X0318796Y0116458D01*
X0318651Y0116634D01*
X0318503Y0116807D01*
X0318350Y0116976D01*
X0318194Y0117142D01*
X0318033Y0117304D01*
X0317869Y0117462D01*
X0317701Y0117615D01*
X0317529Y0117765D01*
X0317353Y0117911D01*
X0317174Y0118052D01*
X0316992Y0118189D01*
X0316807Y0118321D01*
X0316618Y0118449D01*
X0316426Y0118572D01*
X0316232Y0118691D01*
X0316034Y0118805D01*
X0315834Y0118914D01*
X0315632Y0119018D01*
X0315426Y0119117D01*
X0315219Y0119211D01*
X0315009Y0119301D01*
X0314797Y0119385D01*
X0314584Y0119464D01*
X0314368Y0119538D01*
X0314151Y0119606D01*
X0313932Y0119670D01*
X0313711Y0119728D01*
X0313490Y0119780D01*
X0313267Y0119828D01*
X0313043Y0119870D01*
X0312818Y0119906D01*
X0312592Y0119937D01*
X0312365Y0119963D01*
X0312138Y0119983D01*
X0311911Y0119997D01*
X0311683Y0120006D01*
X0311455Y0120010D01*
X0311228Y0120008D01*
X0311000Y0120001D01*
X0310772Y0120008D01*
X0310545Y0120010D01*
X0310317Y0120006D01*
X0310089Y0119997D01*
X0309862Y0119983D01*
X0309635Y0119963D01*
X0309408Y0119937D01*
X0309182Y0119906D01*
X0308957Y0119870D01*
X0308733Y0119828D01*
X0308510Y0119780D01*
X0308289Y0119728D01*
X0308068Y0119670D01*
X0307849Y0119606D01*
X0307632Y0119538D01*
X0307416Y0119464D01*
X0307203Y0119385D01*
X0306991Y0119301D01*
X0306781Y0119211D01*
X0306574Y0119117D01*
X0306368Y0119018D01*
X0306166Y0118914D01*
X0305966Y0118805D01*
X0305768Y0118691D01*
X0305574Y0118572D01*
X0305382Y0118449D01*
X0305193Y0118321D01*
X0305008Y0118189D01*
X0304826Y0118052D01*
X0304647Y0117911D01*
X0304471Y0117765D01*
X0304299Y0117615D01*
X0304131Y0117462D01*
X0303967Y0117304D01*
X0303806Y0117142D01*
X0303650Y0116976D01*
X0303497Y0116807D01*
X0303349Y0116634D01*
X0303204Y0116458D01*
X0303064Y0116278D01*
X0302929Y0116095D01*
X0302798Y0115908D01*
X0302671Y0115718D01*
X0302550Y0115526D01*
X0302432Y0115330D01*
X0302320Y0115132D01*
X0302212Y0114931D01*
X0302110Y0114728D01*
X0302012Y0114522D01*
X0301919Y0114314D01*
X0301831Y0114103D01*
X0301749Y0113891D01*
X0301671Y0113677D01*
X0301599Y0113461D01*
X0301532Y0113243D01*
X0301470Y0113023D01*
X0301414Y0112803D01*
X0301363Y0112580D01*
X0301317Y0112357D01*
X0301277Y0112133D01*
X0301242Y0111908D01*
X0301213Y0111682D01*
X0301189Y0111455D01*
X0301170Y0111228D01*
X0301157Y0111000D01*
X0293283Y0103126D02*
X0293283Y0097220D01*
X0301157Y0097220D01*
X0320843Y0097220D02*
X0328717Y0097220D01*
X0328717Y0103126D01*
X0328717Y0118874D02*
X0328717Y0127142D01*
X0323900Y0164500D02*
X0298100Y0164500D01*
X0298100Y0177500D01*
X0323900Y0177500D01*
X0323900Y0164500D01*
X0228500Y0161000D02*
X0223500Y0161000D01*
X0223500Y0096000D02*
X0228500Y0096000D01*
X0368500Y0091000D02*
X0373500Y0091000D01*
X0228500Y0241000D02*
X0223500Y0241000D01*
X0223500Y0246000D02*
X0228500Y0246000D01*
X0228500Y0326000D02*
X0223500Y0326000D01*
D16*
X0252323Y0312679D02*
X0252323Y0309321D01*
X0256769Y0308869D01*
X0257061Y0307864D01*
X0257461Y0306897D01*
X0257966Y0305980D01*
X0255142Y0302517D01*
X0257517Y0300142D01*
X0260980Y0302966D01*
X0261662Y0302578D01*
X0262374Y0302248D01*
X0264352Y0307022D01*
X0263709Y0307354D01*
X0263130Y0307789D01*
X0262633Y0308315D01*
X0262231Y0308917D01*
X0261935Y0309578D01*
X0261755Y0310279D01*
X0261694Y0311000D01*
X0261769Y0311804D01*
X0261994Y0312580D01*
X0262359Y0313300D01*
X0262853Y0313939D01*
X0263457Y0314475D01*
X0264150Y0314889D01*
X0264909Y0315166D01*
X0265706Y0315296D01*
X0266513Y0315276D01*
X0267303Y0315104D01*
X0268046Y0314789D01*
X0268717Y0314340D01*
X0269293Y0313774D01*
X0269753Y0313111D01*
X0270081Y0312373D01*
X0270266Y0311587D01*
X0270300Y0310780D01*
X0270184Y0309981D01*
X0269920Y0309217D01*
X0269518Y0308517D01*
X0268993Y0307904D01*
X0268362Y0307399D01*
X0267648Y0307022D01*
X0269626Y0302248D01*
X0270338Y0302578D01*
X0271020Y0302966D01*
X0274483Y0300142D01*
X0276858Y0302517D01*
X0274034Y0305980D01*
X0274539Y0306897D01*
X0274939Y0307864D01*
X0275231Y0308869D01*
X0279677Y0309321D01*
X0279677Y0312679D01*
X0275231Y0313131D01*
X0274939Y0314136D01*
X0274539Y0315103D01*
X0274034Y0316020D01*
X0276858Y0319483D01*
X0274483Y0321858D01*
X0271020Y0319034D01*
X0270103Y0319539D01*
X0269136Y0319939D01*
X0268131Y0320231D01*
X0267679Y0324677D01*
X0264321Y0324677D01*
X0263869Y0320231D01*
X0262864Y0319939D01*
X0261897Y0319539D01*
X0260980Y0319034D01*
X0257517Y0321858D01*
X0255142Y0319483D01*
X0257966Y0316020D01*
X0257461Y0315103D01*
X0257061Y0314136D01*
X0256769Y0313131D01*
X0252323Y0312679D01*
X0252323Y0312614D02*
X0262011Y0312614D01*
X0261833Y0312025D02*
X0252323Y0312025D01*
X0252323Y0311436D02*
X0261735Y0311436D01*
X0261707Y0310847D02*
X0252323Y0310847D01*
X0252323Y0310258D02*
X0261760Y0310258D01*
X0261912Y0309669D02*
X0252323Y0309669D01*
X0254696Y0309080D02*
X0262158Y0309080D01*
X0262516Y0308491D02*
X0256879Y0308491D01*
X0257050Y0307902D02*
X0263024Y0307902D01*
X0263789Y0307313D02*
X0257289Y0307313D01*
X0257556Y0306723D02*
X0264228Y0306723D01*
X0263984Y0306134D02*
X0257881Y0306134D01*
X0257611Y0305545D02*
X0263740Y0305545D01*
X0263496Y0304956D02*
X0257131Y0304956D01*
X0256651Y0304367D02*
X0263252Y0304367D01*
X0263008Y0303778D02*
X0256170Y0303778D01*
X0255690Y0303189D02*
X0262764Y0303189D01*
X0262520Y0302600D02*
X0261623Y0302600D01*
X0260531Y0302600D02*
X0255210Y0302600D01*
X0255647Y0302011D02*
X0259809Y0302011D01*
X0259087Y0301422D02*
X0256236Y0301422D01*
X0256825Y0300833D02*
X0258364Y0300833D01*
X0257642Y0300244D02*
X0257415Y0300244D01*
X0268504Y0304956D02*
X0274869Y0304956D01*
X0275349Y0304367D02*
X0268748Y0304367D01*
X0268992Y0303778D02*
X0275830Y0303778D01*
X0276310Y0303189D02*
X0269236Y0303189D01*
X0269480Y0302600D02*
X0270377Y0302600D01*
X0271469Y0302600D02*
X0276790Y0302600D01*
X0276353Y0302011D02*
X0272191Y0302011D01*
X0272913Y0301422D02*
X0275764Y0301422D01*
X0275175Y0300833D02*
X0273636Y0300833D01*
X0274358Y0300244D02*
X0274585Y0300244D01*
X0274389Y0305545D02*
X0268260Y0305545D01*
X0268016Y0306134D02*
X0274119Y0306134D01*
X0274444Y0306723D02*
X0267772Y0306723D01*
X0268198Y0307313D02*
X0274711Y0307313D01*
X0274950Y0307902D02*
X0268990Y0307902D01*
X0269496Y0308491D02*
X0275121Y0308491D01*
X0277304Y0309080D02*
X0269841Y0309080D01*
X0270076Y0309669D02*
X0279677Y0309669D01*
X0279677Y0310258D02*
X0270224Y0310258D01*
X0270298Y0310847D02*
X0279677Y0310847D01*
X0279677Y0311436D02*
X0270272Y0311436D01*
X0270163Y0312025D02*
X0279677Y0312025D01*
X0279677Y0312614D02*
X0269974Y0312614D01*
X0269689Y0313203D02*
X0275210Y0313203D01*
X0275039Y0313792D02*
X0269275Y0313792D01*
X0268656Y0314381D02*
X0274838Y0314381D01*
X0274594Y0314970D02*
X0267619Y0314970D01*
X0264374Y0314970D02*
X0257406Y0314970D01*
X0257162Y0314381D02*
X0263351Y0314381D01*
X0262739Y0313792D02*
X0256961Y0313792D01*
X0256790Y0313203D02*
X0262310Y0313203D01*
X0257712Y0315559D02*
X0274288Y0315559D01*
X0274139Y0316148D02*
X0257861Y0316148D01*
X0257381Y0316738D02*
X0274619Y0316738D01*
X0275100Y0317327D02*
X0256900Y0317327D01*
X0256420Y0317916D02*
X0275580Y0317916D01*
X0276060Y0318505D02*
X0255940Y0318505D01*
X0255459Y0319094D02*
X0260907Y0319094D01*
X0261088Y0319094D02*
X0270912Y0319094D01*
X0271093Y0319094D02*
X0276540Y0319094D01*
X0276659Y0319683D02*
X0271815Y0319683D01*
X0272538Y0320272D02*
X0276070Y0320272D01*
X0275481Y0320861D02*
X0273260Y0320861D01*
X0273983Y0321450D02*
X0274892Y0321450D01*
X0269756Y0319683D02*
X0262244Y0319683D01*
X0263873Y0320272D02*
X0268127Y0320272D01*
X0268067Y0320861D02*
X0263933Y0320861D01*
X0263993Y0321450D02*
X0268007Y0321450D01*
X0267947Y0322039D02*
X0264053Y0322039D01*
X0264113Y0322628D02*
X0267887Y0322628D01*
X0267828Y0323217D02*
X0264173Y0323217D01*
X0264232Y0323806D02*
X0267768Y0323806D01*
X0267708Y0324395D02*
X0264292Y0324395D01*
X0260185Y0319683D02*
X0255341Y0319683D01*
X0255930Y0320272D02*
X0259462Y0320272D01*
X0258740Y0320861D02*
X0256519Y0320861D01*
X0257108Y0321450D02*
X0258017Y0321450D01*
M02*
