%
M48
M72
T01C0.01378
T02C0.04400
T03C0.08000
%
T01
X287800Y166000
X287800Y176800
X272200Y182200
X282400Y221200
X283000Y230200
X324400Y260200
X322000Y271000
X313600Y271000
X301000Y271000
X292000Y301000
X329800Y233200
X340600Y221800
T02
X226000Y101000
X226000Y111000
X226000Y121000
X226000Y131000
X226000Y141000
X226000Y151000
X226000Y166000
X226000Y176000
X226000Y186000
X226000Y196000
X226000Y206000
X226000Y216000
X226000Y226000
X226000Y236000
X226000Y251000
X226000Y261000
X226000Y271000
X226000Y281000
X226000Y291000
X226000Y301000
X226000Y311000
X226000Y321000
X326000Y326000
X336000Y326000
X371000Y321000
X371000Y331000
X371000Y311000
X371000Y301000
X371000Y291000
X371000Y281000
X371000Y271000
X371000Y261000
X371000Y251000
X371000Y241000
X371000Y231000
X371000Y221000
X371000Y211000
X371000Y201000
X371000Y191000
X371000Y181000
X371000Y166000
X371000Y156000
X371000Y146000
X371000Y136000
X371000Y126000
X371000Y116000
X371000Y106000
X371000Y96000
X271000Y141000
X261000Y141000
X251000Y141000
X251000Y151000
X261000Y151000
X271000Y151000
T03
X311000Y111000
X311000Y129000
M30
